# xmcd
#
# Track frame offsets:
#	150
#	8274
#	19885
#	30669
#	43516
#	56126
#	69493
#	82763
#	93604
#	108146
#	120537
#	132302
#	143011
#	153732
#	166147
#	180797
#	192734
#	204564
#
# Disc length: 2881 seconds
#
# Revision: 0
# Processed by: cddbd v1.5.1PL0 Copyright (c) Steve Scherf et al.
# Submitted via: dBpowerAMP V4.0
#
DISCID=e40b3f12
DTITLE=Various Artist - Greatest Country Hits
DYEAR=1900
DGENRE=Country
TTITLE0=The Language Of Love - John D Loudermilk
TTITLE1=A Thing Called Love - Johnny Cash
TTITLE2=Near You - Tammy Wynette and George Jones
TTITLE3=I'll Hold In My Heart - Glen Campbell
TTITLE4=I love You Because - Jim Reeves
TTITLE5=Let It be Me - Skeeter Davis and Bobby Bare
TTITLE6=I Will Always Love You - Dolly Parton
TTITLE7=Please Help Me I'm Falling - Hank Locklin
TTITLE8=Gentle On My Mind - Tammy Wynette
TTITLE9=By The Time I Get To Phoenix - Glen Campbell
TTITLE10=Bouquet Of Rose - Slim Whiteman
TTITLE11=Kisses Sweeter Than Wings - Jimmie Rodgers
TTITLE12=Love Is Like A Butterfly - Dolly Parton
TTITLE13=The Most Beautiful Girl - Charlie Rich
TTITLE14=Cry Me A River - Crystal Gayle
TTITLE15=Misty Blue - Bille Jo Spears
TTITLE16=Let Your Love Flow - Loretta Lynn and Conway Twitty
TTITLE17=Welcome To My World - Jim Reeves
EXTD=
EXTT0=
EXTT1=
EXTT2=
EXTT3=
EXTT4=
EXTT5=
EXTT6=
EXTT7=
EXTT8=
EXTT9=
EXTT10=
EXTT11=
EXTT12=
EXTT13=
EXTT14=
EXTT15=
EXTT16=
EXTT17=
PLAYORDER=
